<svg width="283" height="304" viewBox="0 0 283 304" fill="none" xmlns="http://www.w3.org/2000/svg">
<g clip-path="url(#clip0_24_425)">
<path d="M0.997416 89.3735L0 89.4453L1.32843 107.888L2.32584 107.816L0.997416 89.3735Z" fill="#407BFF"/>
<path d="M3.00328 117.334L2.00586 117.406L2.5059 124.348L3.50332 124.276L3.00328 117.334Z" fill="#407BFF"/>
<path d="M234.59 202.172H20.4303C15.5903 202.172 11.3403 198.212 10.9903 193.362L0.470304 47.2319C0.120304 42.3919 3.8003 38.4219 8.6403 38.4219H222.8C227.64 38.4219 231.89 42.3819 232.24 47.2319L242.76 193.362C243.11 198.202 239.43 202.172 234.59 202.172Z" fill="#407BFF"/>
<path d="M235.411 202.172H21.2506C16.4106 202.172 12.1606 198.212 11.8106 193.362L1.29062 47.2319C0.940617 42.3919 4.62062 38.4219 9.46062 38.4219H223.621C228.461 38.4219 232.711 42.3819 233.061 47.2319L243.581 193.362C243.931 198.202 240.251 202.172 235.411 202.172Z" fill="#407BFF"/>
<path opacity="0.5" d="M235.411 202.172H21.2506C16.4106 202.172 12.1606 198.212 11.8106 193.362L1.29062 47.2319C0.940617 42.3919 4.62062 38.4219 9.46062 38.4219H223.621C228.461 38.4219 232.711 42.3819 233.061 47.2319L243.581 193.362C243.931 198.202 240.251 202.172 235.411 202.172Z" fill="white"/>
<path d="M223.941 42.832H9.78057C9.54057 42.832 9.30057 42.832 9.06057 42.862C3.59057 43.312 4.70057 51.642 10.2306 51.642H224.751C230.281 51.642 230.191 43.312 224.651 42.862C224.411 42.842 224.171 42.832 223.931 42.832H223.941Z" fill="#407BFF"/>
<path d="M15.3605 47.2309C15.4405 48.3509 14.6005 49.2509 13.4905 49.2509C12.3805 49.2509 11.4105 48.3509 11.3305 47.2309C11.2505 46.1209 12.0905 45.2109 13.2005 45.2109C14.3105 45.2109 15.2805 46.1109 15.3605 47.2309Z" fill="#FAFAFA"/>
<path d="M22.2306 47.2309C22.3106 48.3509 21.4706 49.2509 20.3606 49.2509C19.2506 49.2509 18.2806 48.3509 18.2006 47.2309C18.1206 46.1209 18.9606 45.2109 20.0706 45.2109C21.1806 45.2109 22.1506 46.1109 22.2306 47.2309Z" fill="#FAFAFA"/>
<path d="M29.0909 47.2309C29.1709 48.3509 28.3309 49.2509 27.2209 49.2509C26.1109 49.2509 25.1409 48.3509 25.0609 47.2309C24.9809 46.1209 25.8209 45.2109 26.9309 45.2109C28.0409 45.2109 29.0109 46.1109 29.0909 47.2309Z" fill="#FAFAFA"/>
<path d="M229.73 187.581H24.8298C23.0698 187.581 21.5298 186.151 21.4098 184.391L12.7598 64.2213C12.6298 62.4613 13.9598 61.0312 15.7198 61.0312H220.62C222.38 61.0312 223.92 62.4613 224.04 64.2213L232.69 184.391C232.82 186.151 231.49 187.581 229.73 187.581Z" fill="white"/>
<path d="M143.41 141.802L140.07 95.4823L129.97 89.4023H102.16L105.94 141.802H143.41Z" fill="white"/>
<path d="M143.41 142.292H105.94C105.69 142.292 105.47 142.092 105.46 141.842L101.69 89.4419C101.69 89.3119 101.73 89.1719 101.82 89.0719C101.91 88.9719 102.04 88.9219 102.17 88.9219H129.97C130.06 88.9219 130.14 88.9419 130.22 88.9919L140.33 95.0719C140.47 95.1519 140.55 95.2919 140.56 95.4519L143.9 141.772C143.9 141.902 143.86 142.042 143.77 142.142C143.68 142.242 143.55 142.292 143.42 142.292H143.41ZM106.39 141.322H142.89L139.61 95.7719L129.83 89.8919H102.68L106.38 141.322H106.39Z" fill="#407BFF"/>
<path d="M140.071 95.4823L129.971 89.4023L133.681 97.4623L140.071 95.4823Z" fill="#EBEBEB"/>
<path d="M133.681 97.9425C133.501 97.9425 133.321 97.8325 133.241 97.6625L129.531 89.6025C129.441 89.4125 129.491 89.1825 129.651 89.0425C129.811 88.9025 130.041 88.8825 130.221 88.9925L140.331 95.0725C140.491 95.1725 140.581 95.3525 140.561 95.5425C140.541 95.7325 140.401 95.8925 140.221 95.9425L133.821 97.9225C133.821 97.9225 133.721 97.9425 133.681 97.9425ZM131.071 90.6225L133.951 96.8625L138.911 95.3325L131.081 90.6225H131.071Z" fill="#407BFF"/>
<path d="M117.85 113.011C117.93 114.181 117.05 115.131 115.89 115.131C114.73 115.131 113.7 114.181 113.62 113.011C113.54 111.841 114.42 110.891 115.58 110.891C116.74 110.891 117.77 111.841 117.85 113.011Z" fill="#407BFF"/>
<path d="M131.591 113.011C131.671 114.181 130.791 115.131 129.631 115.131C128.471 115.131 127.441 114.181 127.361 113.011C127.281 111.841 128.161 110.891 129.321 110.891C130.481 110.891 131.511 111.841 131.591 113.011Z" fill="#407BFF"/>
<path d="M135.46 126.742C135.21 126.742 135 126.552 134.98 126.292C134.73 122.892 129.4 120.122 123.08 120.122C118.9 120.122 115.14 121.362 113.27 123.372C112.44 124.262 112.06 125.222 112.13 126.232C112.15 126.502 111.95 126.732 111.68 126.752C111.41 126.772 111.18 126.572 111.16 126.302C111.07 125.032 111.55 123.792 112.56 122.712C114.6 120.522 118.63 119.152 123.08 119.152C130.01 119.152 135.66 122.262 135.95 126.222C135.97 126.492 135.77 126.722 135.5 126.742C135.49 126.742 135.48 126.742 135.46 126.742Z" fill="#407BFF"/>
<path d="M110.05 108.723C109.93 108.723 109.81 108.683 109.72 108.593C109.52 108.413 109.51 108.103 109.69 107.913L111.81 105.623C111.99 105.423 112.3 105.413 112.49 105.593C112.69 105.773 112.7 106.083 112.52 106.273L110.4 108.563C110.3 108.663 110.17 108.723 110.04 108.723H110.05Z" fill="#407BFF"/>
<path d="M134.461 108.721C134.341 108.721 134.221 108.681 134.131 108.591L131.681 106.301C131.481 106.121 131.471 105.811 131.661 105.621C131.841 105.421 132.151 105.411 132.341 105.601L134.791 107.891C134.991 108.071 135.001 108.381 134.811 108.571C134.711 108.671 134.591 108.721 134.461 108.721Z" fill="#407BFF"/>
<path d="M250.57 60.0806C251.46 59.6306 252.53 59.0506 253.51 58.5106C254.51 57.9606 255.51 57.3806 256.49 56.7906C258.45 55.5806 260.42 54.3906 262.3 53.0706C266.08 50.4606 269.63 47.5706 272.81 44.4206C273.23 44.0406 273.58 43.6106 273.97 43.2106L274.54 42.6006L274.83 42.2906L274.97 42.1406C274.97 42.1406 275 42.1106 274.98 42.1406L274.95 42.1906C274.81 42.4606 274.93 42.3806 274.98 42.1206C275.05 41.8706 275.1 41.4706 275.12 41.0306C275.18 39.2106 274.83 36.9206 274.39 34.7106C273.5 30.2206 272.15 25.6106 270.82 21.0906L274.71 19.3906C277.14 23.7406 279.17 28.1706 280.82 32.9906C281.61 35.4306 282.33 37.8806 282.54 40.8806C282.58 41.6506 282.6 42.4506 282.46 43.3906C282.31 44.3106 282.08 45.4206 281.24 46.6706L281.07 46.9006L280.94 47.0706L280.79 47.2606L280.48 47.6306L279.86 48.3806C279.44 48.8706 279.05 49.4006 278.6 49.8606C275.15 53.6906 271.32 57.0706 267.22 60.0106C265.18 61.5006 263.1 62.9106 260.94 64.2006C259.86 64.8506 258.77 65.4806 257.66 66.0906C256.54 66.7106 255.47 67.2606 254.19 67.8606L250.56 60.1006L250.57 60.0806Z" fill="#FFB573"/>
<path d="M241.67 295.179C242.44 295.179 243.29 295.019 243.88 294.879C243.96 294.859 244.02 294.799 244.03 294.719C244.04 294.639 244.01 294.559 243.94 294.519C243.65 294.329 241.11 292.689 240.13 293.129C239.98 293.199 239.78 293.349 239.74 293.689C239.68 294.129 239.79 294.489 240.07 294.739C240.43 295.069 241.02 295.179 241.67 295.179ZM243.32 294.599C241.86 294.889 240.77 294.839 240.34 294.449C240.16 294.289 240.09 294.049 240.14 293.739C240.16 293.569 240.24 293.519 240.31 293.489C240.82 293.259 242.29 293.969 243.33 294.589L243.32 294.599Z" fill="#407BFF"/>
<path d="M243.84 294.889C243.84 294.889 243.91 294.889 243.94 294.859C244 294.819 244.04 294.759 244.04 294.689C244.04 294.589 244.03 292.179 243.12 291.369C242.88 291.159 242.6 291.069 242.28 291.099C241.78 291.159 241.65 291.469 241.61 291.649C241.42 292.589 242.94 294.399 243.74 294.849C243.77 294.869 243.8 294.879 243.84 294.879V294.889ZM242.41 291.489C242.57 291.489 242.72 291.549 242.85 291.659C243.39 292.139 243.58 293.499 243.63 294.299C242.83 293.659 241.88 292.309 242 291.729C242.02 291.639 242.07 291.519 242.33 291.489C242.36 291.489 242.39 291.489 242.42 291.489H242.41Z" fill="#407BFF"/>
<path d="M243.1 35.0725C242.13 40.0425 240.07 50.1125 243.55 53.4225C243.55 53.4225 242.19 58.4625 232.96 58.4625C222.8 58.4625 228.11 53.4225 228.11 53.4225C233.65 52.1025 233.51 47.9825 232.54 44.1225L243.1 35.0625V35.0725Z" fill="#FFB573"/>
<path d="M226.159 55.432C224.569 55.652 225.919 51.522 226.569 51.092C228.069 50.102 247.419 48.702 247.299 51.052C247.219 52.062 246.749 54.032 245.899 54.702C245.049 55.372 240.079 53.352 226.169 55.432H226.159Z" fill="#263238"/>
<path d="M229.32 54.0416C228.05 54.4716 228.17 50.3116 228.61 49.8116C229.61 48.6516 245.27 44.6316 245.74 46.9016C245.92 47.8816 246.01 49.8516 245.47 50.6116C244.93 51.3716 240.33 50.1116 229.33 54.0416H229.32Z" fill="#263238"/>
<path d="M223.49 26.1109C223.37 26.1109 223.24 26.0709 223.16 25.9709C222.04 24.6009 220.58 24.7409 220.57 24.7409C220.35 24.7609 220.16 24.6109 220.13 24.3909C220.11 24.1709 220.26 23.9809 220.48 23.9509C220.56 23.9509 222.38 23.7709 223.77 25.4609C223.91 25.6309 223.88 25.8809 223.71 26.0209C223.64 26.0809 223.56 26.1009 223.48 26.1109H223.49Z" fill="#263238"/>
<path d="M221.549 31.0117C221.549 31.0117 220.689 34.0217 219.579 35.5417C220.549 36.2817 222.019 35.7517 222.019 35.7517L221.549 31.0117Z" fill="#FF5652"/>
<path d="M222.04 29.7918C222.11 30.4618 221.8 31.0418 221.36 31.0918C220.92 31.1318 220.51 30.6218 220.44 29.9518C220.37 29.2818 220.68 28.7018 221.12 28.6518C221.56 28.6018 221.97 29.1218 222.04 29.7918Z" fill="#263238"/>
<path d="M221.319 28.6694L219.659 28.3594C219.659 28.3594 220.609 29.5394 221.319 28.6694Z" fill="#263238"/>
<path d="M253.579 294.693H245.199L245.859 275.293H254.239L253.579 294.693Z" fill="#FFB573"/>
<path d="M244.539 293.721H253.949C254.289 293.721 254.569 293.961 254.619 294.291L255.689 301.741C255.799 302.511 255.139 303.241 254.349 303.231C251.069 303.171 249.489 302.981 245.349 302.981C242.799 302.981 239.079 303.241 235.569 303.241C232.059 303.241 231.869 299.761 233.329 299.451C239.889 298.041 240.929 296.091 243.139 294.231C243.539 293.901 244.039 293.711 244.539 293.711V293.721Z" fill="#263238"/>
<g opacity="0.2">
<path d="M254.239 275.301H245.859L245.529 285.301H253.909L254.239 275.301Z" fill="black"/>
</g>
<path d="M220.25 65.053C215.07 63.023 210.12 60.813 205.2 58.303C200.28 55.783 195.45 53.113 190.8 49.533C189.64 48.623 188.5 47.623 187.38 46.463C187.1 46.163 186.82 45.883 186.55 45.543C186.26 45.183 186.04 44.973 185.67 44.413C184.99 43.443 184.47 42.133 184.33 40.803C184.2 39.473 184.44 38.193 184.82 37.183C185.2 36.153 185.7 35.303 186.23 34.573C187.28 33.113 188.45 32.023 189.62 31.053C191.96 29.113 194.44 27.703 196.92 26.383C198.16 25.723 199.42 25.133 200.7 24.583C201.99 24.023 203.24 23.513 204.61 23.043L206.39 26.893C202.03 29.643 197.51 32.663 194.19 36.053C193.38 36.893 192.68 37.773 192.23 38.543C191.75 39.333 191.76 39.923 191.84 39.873C191.88 39.873 191.86 39.853 191.98 39.973L192.38 40.403C192.53 40.583 192.74 40.763 192.93 40.953C193.72 41.683 194.64 42.423 195.63 43.123C197.61 44.533 199.8 45.853 202.06 47.093C204.31 48.343 206.63 49.543 209 50.683C213.71 52.943 218.6 55.113 223.39 57.093L220.26 65.063L220.25 65.053Z" fill="#FFB573"/>
<path d="M208.849 24.1627L210.239 21.1627L203.939 18.9727C203.939 18.9727 201.979 24.8727 204.319 27.6027C206.309 27.2827 208.009 25.9927 208.849 24.1627Z" fill="#FFB573"/>
<path d="M210.229 14.6609L205.199 13.2109L203.939 18.9709L210.229 21.1509V14.6609Z" fill="#FFB573"/>
<path d="M275.23 21.4497L275.96 14.4297L269.47 15.9497C269.47 15.9497 269.37 22.5297 272.81 23.5797L275.23 21.4497Z" fill="#FFB573"/>
<path d="M272.839 9.51172L268.609 11.4917L269.479 15.9517L275.959 14.4317L272.839 9.51172Z" fill="#FFB573"/>
<path d="M244.42 25.2602C244.73 33.5702 245.03 37.0802 241.28 41.7302C235.63 48.7202 225.36 47.2802 222.58 39.2302C220.08 31.9902 220 19.6202 227.76 15.5402C235.41 11.5202 244.12 16.9602 244.42 25.2702V25.2602Z" fill="#FFB573"/>
<path d="M240.8 41.7092C248.96 38.1892 254.32 30.7592 252.05 19.1392C249.88 8.01922 242.38 6.92922 239.28 9.22922C236.18 11.5392 228.45 8.09922 223.82 11.9992C215.79 18.7592 223.38 26.0492 227.34 30.3692C229.7 35.2292 232.8 45.1692 240.8 41.7092Z" fill="#263238"/>
<path d="M237.41 17.1393C240.16 21.1193 245.44 22.2493 249.2 19.6493C252.96 17.0493 253.78 11.7193 251.02 7.72932C248.27 3.74932 242.99 2.61932 239.23 5.21932C235.47 7.81932 234.65 13.1493 237.41 17.1393Z" fill="#407BFF"/>
<path d="M239.53 10.0111C238.35 3.31106 244.69 -1.84894 253.17 0.641058C261.64 3.14106 257.16 10.6511 255.42 16.6511C253.68 22.6511 258.24 28.3611 260.15 23.8011C262.06 19.2311 258.85 17.8211 258.85 17.8211C258.85 17.8211 267.85 20.1511 259.49 30.3011C251.13 40.4411 243.56 29.2411 245.61 22.6311C247.26 17.2911 240.64 16.3411 239.53 10.0111Z" fill="#263238"/>
<path d="M231.06 12.5405C227.19 10.5205 220.64 8.89051 216.91 15.1605C215.15 18.1305 215.83 22.1505 215.83 22.1505L227.22 22.9105L231.06 12.5405Z" fill="#263238"/>
<path d="M214.49 20.1802C214.49 20.1802 214.48 20.1802 214.47 20.1802C214.33 20.1802 214.23 20.0502 214.24 19.9202C214.25 19.7502 214.53 15.7302 216.95 13.2002C222.82 7.10023 229.7 12.1602 231.67 13.8602C231.77 13.9502 231.79 14.1102 231.7 14.2102C231.61 14.3102 231.45 14.3302 231.35 14.2402C229.47 12.6202 222.88 7.77023 217.32 13.5502C215.02 15.9402 214.75 19.9102 214.74 19.9502C214.74 20.0802 214.62 20.1802 214.49 20.1802Z" fill="#263238"/>
<path d="M228.73 30.0425C228.72 31.6625 227.99 33.2425 227.07 34.3225C225.69 35.9425 224.1 35.1425 223.74 33.3525C223.41 31.7425 223.74 28.9525 225.48 27.9825C227.2 27.0225 228.73 28.2025 228.72 30.0525L228.73 30.0425Z" fill="#FFB573"/>
<path d="M226.93 106.131C226.93 106.131 227.46 164.271 232.51 196.671C236.58 222.841 244.12 283.361 244.12 283.361H255.54C255.54 283.361 256.66 224.941 254.59 199.051C249.36 133.551 262.86 121.311 251.96 106.121H226.92L226.93 106.131Z" fill="#263238"/>
<path opacity="0.1" d="M226.93 106.131C226.93 106.131 227.46 164.271 232.51 196.671C236.58 222.841 244.12 283.361 244.12 283.361H255.54C255.54 283.361 256.66 224.941 254.59 199.051C249.36 133.551 262.86 121.311 251.96 106.121H226.92L226.93 106.131Z" fill="white"/>
<path opacity="0.3" d="M232.939 132.499C236.949 150.049 233.749 177.689 231.559 189.859C229.239 171.379 228.069 147.429 227.489 129.879C229.559 126.519 231.519 126.299 232.939 132.499Z" fill="black"/>
<path d="M242.559 283.591H257.109L257.869 278.481L242.479 277.961L242.559 283.591Z" fill="#407BFF"/>
<path d="M246.71 57.0511C248.08 54.3311 255.43 52.6211 259.46 52.6211L262.47 65.9811C262.47 65.9811 254.46 77.8711 251.13 76.6111C247.19 75.1211 243.79 62.8711 246.72 57.0411L246.71 57.0511Z" fill="#407BFF"/>
<path opacity="0.4" d="M246.71 57.0511C248.08 54.3311 255.43 52.6211 259.46 52.6211L262.47 65.9811C262.47 65.9811 254.46 77.8711 251.13 76.6111C247.19 75.1211 243.79 62.8711 246.72 57.0411L246.71 57.0511Z" fill="black"/>
<path d="M238.23 280.32C238.27 280.26 238.27 280.19 238.23 280.12C238.19 280.05 238.11 280 238.03 280.02C237.61 280.08 233.91 280.67 233.41 281.73C233.31 281.93 233.33 282.15 233.45 282.35C233.65 282.69 233.94 282.88 234.31 282.92C235.52 283.05 237.27 281.36 238.21 280.35C238.21 280.35 238.23 280.33 238.23 280.32ZM233.79 281.86C234.13 281.3 236.05 280.78 237.51 280.51C236.19 281.85 235.03 282.6 234.35 282.53C234.11 282.51 233.93 282.38 233.79 282.15C233.74 282.06 233.73 281.98 233.77 281.9C233.77 281.89 233.78 281.87 233.79 281.86Z" fill="#407BFF"/>
<path d="M238.229 280.323C238.229 280.323 238.239 280.293 238.249 280.283C238.269 280.213 238.249 280.143 238.209 280.093C238.149 280.023 236.659 278.313 235.299 278.223C234.879 278.193 234.509 278.323 234.209 278.593C233.799 278.963 233.829 279.283 233.939 279.483C234.369 280.343 237.029 280.643 238.109 280.413C238.159 280.403 238.209 280.373 238.239 280.323H238.229ZM234.319 279.063C234.349 279.013 234.399 278.953 234.479 278.883C234.709 278.683 234.969 278.593 235.279 278.613C236.179 278.673 237.199 279.603 237.659 280.073C236.469 280.173 234.549 279.813 234.289 279.293C234.269 279.263 234.239 279.183 234.319 279.053V279.063Z" fill="#407BFF"/>
<path d="M246.959 276.77L239.299 280.17L235.889 273.07L231.429 263.76L230.899 262.68L238.559 259.27L239.149 260.49L243.469 269.5L246.959 276.77Z" fill="#FFB573"/>
<path opacity="0.2" d="M243.47 269.502L235.89 273.072L231.43 263.762L239.15 260.492L243.47 269.502Z" fill="black"/>
<path d="M217.95 106.131C217.95 106.131 193.48 166.961 200.11 195.611C206.11 221.501 232.61 270.531 232.61 270.531L242.86 265.381C242.86 265.381 226.47 206.191 224.69 193.331C221.23 168.311 243.47 133.001 243.47 106.121H217.95V106.131Z" fill="#263238"/>
<path opacity="0.1" d="M217.95 106.131C217.95 106.131 193.48 166.961 200.11 195.611C206.11 221.501 232.61 270.531 232.61 270.531L242.86 265.381C242.86 265.381 226.47 206.191 224.69 193.331C221.23 168.311 243.47 133.001 243.47 106.121H217.95V106.131Z" fill="white"/>
<path d="M237.94 279.11L245.55 273.57C245.83 273.37 246.19 273.4 246.43 273.64L251.68 279.03C252.22 279.59 252.12 280.57 251.47 281.02C248.78 282.91 247.39 283.68 244.05 286.11C241.99 287.61 237.89 290.92 235.05 292.99C232.27 295.01 230.01 292.36 231.01 291.24C235.49 286.24 236.43 283.14 237.12 280.34C237.25 279.83 237.54 279.39 237.95 279.1L237.94 279.11Z" fill="#263238"/>
<path d="M231.949 272.702L245.179 266.652L243.489 261.262L229.319 267.722L231.949 272.702Z" fill="#407BFF"/>
<path d="M224.44 56.3603C223.34 53.5203 213.78 50.4003 208.99 49.3203L206.88 65.0903C206.88 65.0903 214.71 76.3503 218.15 75.4103C222.21 74.3103 226.79 62.4503 224.44 56.3603Z" fill="#407BFF"/>
<path opacity="0.4" d="M224.44 56.3603C223.34 53.5203 213.78 50.4003 208.99 49.3203L206.88 65.0903C206.88 65.0903 214.71 76.3503 218.15 75.4103C222.21 74.3103 226.79 62.4503 224.44 56.3603Z" fill="black"/>
<path d="M213.949 55.5699C213.949 55.5699 209.959 56.9799 217.949 106.13H251.969C251.399 92.2799 251.379 83.7499 257.999 55.3299C257.999 55.3299 250.869 53.7799 243.549 53.4299C237.829 53.1499 233.139 52.9699 228.099 53.4299C221.469 54.0399 213.939 55.5799 213.939 55.5799L213.949 55.5699Z" fill="#407BFF"/>
<path opacity="0.4" d="M213.949 55.5699C213.949 55.5699 209.959 56.9799 217.949 106.13H251.969C251.399 92.2799 251.379 83.7499 257.999 55.3299C257.999 55.3299 250.869 53.7799 243.549 53.4299C237.829 53.1499 233.139 52.9699 228.099 53.4299C221.469 54.0399 213.939 55.5799 213.939 55.5799L213.949 55.5699Z" fill="#0E3384"/>
<path d="M252.48 104.133L254.01 107.183C254.13 107.423 253.85 107.663 253.46 107.663H217.78C217.47 107.663 217.22 107.513 217.2 107.323L216.89 104.273C216.87 104.063 217.13 103.883 217.47 103.883H251.92C252.17 103.883 252.4 103.983 252.47 104.143L252.48 104.133Z" fill="#407BFF"/>
<path opacity="0.3" d="M252.48 104.133L254.01 107.183C254.13 107.423 253.85 107.663 253.46 107.663H217.78C217.47 107.663 217.22 107.513 217.2 107.323L216.89 104.273C216.87 104.063 217.13 103.883 217.47 103.883H251.92C252.17 103.883 252.4 103.983 252.47 104.143L252.48 104.133Z" fill="white"/>
<path d="M247.849 107.982H248.769C248.949 107.982 249.089 107.892 249.079 107.772L248.649 103.812C248.639 103.692 248.479 103.602 248.289 103.602H247.369C247.189 103.602 247.049 103.692 247.059 103.812L247.489 107.772C247.499 107.892 247.659 107.982 247.849 107.982Z" fill="#263238"/>
<path d="M225.49 107.982H226.41C226.59 107.982 226.73 107.892 226.72 107.772L226.29 103.812C226.28 103.692 226.12 103.602 225.93 103.602H225.01C224.83 103.602 224.69 103.692 224.7 103.812L225.13 107.772C225.14 107.892 225.3 107.982 225.49 107.982Z" fill="#263238"/>
<path d="M166.34 153.58V152.284H167.618V149.926H169.112V152.284H171.524V153.58H169.112V158.044V158.206C169.112 158.422 169.112 158.596 169.112 158.728C169.124 158.848 169.13 158.95 169.13 159.034C169.142 159.106 169.154 159.166 169.166 159.214C169.19 159.262 169.22 159.31 169.256 159.358C169.328 159.502 169.46 159.622 169.652 159.718C169.844 159.802 170.054 159.844 170.282 159.844C170.594 159.844 170.936 159.76 171.308 159.592L171.686 160.942C171.362 161.038 171.062 161.104 170.786 161.14C170.522 161.176 170.264 161.194 170.012 161.194C169.568 161.194 169.166 161.11 168.806 160.942C168.446 160.762 168.164 160.516 167.96 160.204C167.864 160.072 167.792 159.928 167.744 159.772C167.696 159.604 167.66 159.436 167.636 159.268C167.624 159.172 167.618 159.046 167.618 158.89C167.618 158.722 167.618 158.464 167.618 158.116V153.58H166.34Z" fill="#2C5ECE"/>
<path d="M165.946 157.325H158.8C158.932 158.153 159.25 158.801 159.754 159.269C160.258 159.725 160.9 159.953 161.68 159.953C162.856 159.953 163.756 159.353 164.38 158.153L165.748 158.927C165.244 159.743 164.668 160.337 164.02 160.709C163.372 161.081 162.592 161.267 161.68 161.267C161.02 161.267 160.414 161.159 159.862 160.943C159.31 160.715 158.836 160.403 158.44 160.007C158.044 159.599 157.738 159.113 157.522 158.549C157.306 157.985 157.198 157.367 157.198 156.695C157.198 156.023 157.306 155.405 157.522 154.841C157.75 154.265 158.056 153.773 158.44 153.365C158.836 152.945 159.304 152.621 159.844 152.393C160.396 152.165 160.996 152.051 161.644 152.051C162.268 152.051 162.844 152.165 163.372 152.393C163.912 152.621 164.368 152.939 164.74 153.347C165.124 153.743 165.424 154.223 165.64 154.787C165.856 155.351 165.964 155.969 165.964 156.641C165.964 156.737 165.964 156.839 165.964 156.947C165.964 157.055 165.958 157.181 165.946 157.325ZM161.644 153.347C160.888 153.347 160.258 153.587 159.754 154.067C159.25 154.535 158.932 155.183 158.8 156.011H164.29C164.266 155.207 164.008 154.565 163.516 154.085C163.036 153.593 162.412 153.347 161.644 153.347Z" fill="#2C5ECE"/>
<path d="M148.244 160.979V152.285H149.756V153.725C150.116 153.149 150.518 152.729 150.962 152.465C151.418 152.189 151.946 152.051 152.546 152.051C153.002 152.051 153.422 152.129 153.806 152.285C154.202 152.441 154.538 152.663 154.814 152.951C155.09 153.251 155.282 153.593 155.39 153.977C155.51 154.361 155.57 154.865 155.57 155.489V160.979H154.094V155.849C154.094 155.645 154.088 155.471 154.076 155.327C154.064 155.171 154.046 155.033 154.022 154.913C153.938 154.457 153.716 154.085 153.356 153.797C153.008 153.509 152.582 153.365 152.078 153.365C151.358 153.365 150.788 153.617 150.368 154.121C149.96 154.625 149.756 155.303 149.756 156.155V160.979H148.244Z" fill="#2C5ECE"/>
<path d="M142.918 160.976V152.282H144.43V153.956C144.958 152.696 145.804 152.066 146.968 152.066C147.124 152.066 147.262 152.078 147.382 152.102C147.514 152.126 147.676 152.168 147.868 152.228L147.454 153.83C147.286 153.77 147.142 153.728 147.022 153.704C146.902 153.68 146.77 153.668 146.626 153.668C145.942 153.668 145.378 153.938 144.934 154.478C144.73 154.73 144.592 154.982 144.52 155.234C144.46 155.474 144.43 155.804 144.43 156.224V160.976H142.918Z" fill="#2C5ECE"/>
<path d="M141.354 157.325H134.208C134.34 158.153 134.658 158.801 135.162 159.269C135.666 159.725 136.308 159.953 137.088 159.953C138.264 159.953 139.164 159.353 139.788 158.153L141.156 158.927C140.652 159.743 140.076 160.337 139.428 160.709C138.78 161.081 138 161.267 137.088 161.267C136.428 161.267 135.822 161.159 135.27 160.943C134.718 160.715 134.244 160.403 133.848 160.007C133.452 159.599 133.146 159.113 132.93 158.549C132.714 157.985 132.606 157.367 132.606 156.695C132.606 156.023 132.714 155.405 132.93 154.841C133.158 154.265 133.464 153.773 133.848 153.365C134.244 152.945 134.712 152.621 135.252 152.393C135.804 152.165 136.404 152.051 137.052 152.051C137.676 152.051 138.252 152.165 138.78 152.393C139.32 152.621 139.776 152.939 140.148 153.347C140.532 153.743 140.832 154.223 141.048 154.787C141.264 155.351 141.372 155.969 141.372 156.641C141.372 156.737 141.372 156.839 141.372 156.947C141.372 157.055 141.366 157.181 141.354 157.325ZM137.052 153.347C136.296 153.347 135.666 153.587 135.162 154.067C134.658 154.535 134.34 155.183 134.208 156.011H139.698C139.674 155.207 139.416 154.565 138.924 154.085C138.444 153.593 137.82 153.347 137.052 153.347Z" fill="#2C5ECE"/>
<path d="M127.141 153.58V152.284H128.419V149.926H129.913V152.284H132.325V153.58H129.913V158.044V158.206C129.913 158.422 129.913 158.596 129.913 158.728C129.925 158.848 129.931 158.95 129.931 159.034C129.943 159.106 129.955 159.166 129.967 159.214C129.991 159.262 130.021 159.31 130.057 159.358C130.129 159.502 130.261 159.622 130.453 159.718C130.645 159.802 130.855 159.844 131.083 159.844C131.395 159.844 131.737 159.76 132.109 159.592L132.487 160.942C132.163 161.038 131.863 161.104 131.587 161.14C131.323 161.176 131.065 161.194 130.813 161.194C130.369 161.194 129.967 161.11 129.607 160.942C129.247 160.762 128.965 160.516 128.761 160.204C128.665 160.072 128.593 159.928 128.545 159.772C128.497 159.604 128.461 159.436 128.437 159.268C128.425 159.172 128.419 159.046 128.419 158.89C128.419 158.722 128.419 158.464 128.419 158.116V153.58H127.141Z" fill="#2C5ECE"/>
<path d="M118.906 160.979V152.285H120.418V153.725C120.778 153.149 121.18 152.729 121.624 152.465C122.08 152.189 122.608 152.051 123.208 152.051C123.664 152.051 124.084 152.129 124.468 152.285C124.864 152.441 125.2 152.663 125.476 152.951C125.752 153.251 125.944 153.593 126.052 153.977C126.172 154.361 126.232 154.865 126.232 155.489V160.979H124.756V155.849C124.756 155.645 124.75 155.471 124.738 155.327C124.726 155.171 124.708 155.033 124.684 154.913C124.6 154.457 124.378 154.085 124.018 153.797C123.67 153.509 123.244 153.365 122.74 153.365C122.02 153.365 121.45 153.617 121.03 154.121C120.622 154.625 120.418 155.303 120.418 156.155V160.979H118.906Z" fill="#2C5ECE"/>
<path d="M115.268 160.978V148H116.834V160.978H115.268Z" fill="#2C5ECE"/>
<path d="M99.0322 156.656C99.0322 155.996 99.1462 155.384 99.3742 154.82C99.6142 154.256 99.9442 153.77 100.364 153.362C100.784 152.954 101.282 152.636 101.858 152.408C102.434 152.18 103.058 152.066 103.73 152.066C104.402 152.066 105.026 152.18 105.602 152.408C106.178 152.636 106.676 152.954 107.096 153.362C107.516 153.77 107.846 154.256 108.086 154.82C108.326 155.384 108.446 155.996 108.446 156.656C108.446 157.316 108.326 157.928 108.086 158.492C107.846 159.044 107.516 159.524 107.096 159.932C106.676 160.34 106.178 160.658 105.602 160.886C105.026 161.114 104.402 161.228 103.73 161.228C103.058 161.228 102.434 161.114 101.858 160.886C101.282 160.658 100.784 160.34 100.364 159.932C99.9442 159.524 99.6142 159.044 99.3742 158.492C99.1462 157.928 99.0322 157.316 99.0322 156.656ZM103.73 153.398C103.274 153.398 102.854 153.482 102.47 153.65C102.086 153.818 101.75 154.046 101.462 154.334C101.186 154.622 100.964 154.964 100.796 155.36C100.64 155.756 100.562 156.188 100.562 156.656C100.562 157.124 100.64 157.556 100.796 157.952C100.964 158.336 101.186 158.672 101.462 158.96C101.75 159.248 102.086 159.476 102.47 159.644C102.854 159.8 103.274 159.878 103.73 159.878C104.186 159.878 104.606 159.8 104.99 159.644C105.386 159.476 105.722 159.248 105.998 158.96C106.286 158.672 106.508 158.33 106.664 157.934C106.832 157.538 106.916 157.112 106.916 156.656C106.916 156.188 106.832 155.756 106.664 155.36C106.508 154.964 106.286 154.622 105.998 154.334C105.722 154.046 105.386 153.818 104.99 153.65C104.606 153.482 104.186 153.398 103.73 153.398Z" fill="#2C5ECE"/>
<path d="M86 160.978V148H87.332L95.252 157.576C95.36 157.708 95.45 157.822 95.522 157.918C95.606 158.014 95.678 158.11 95.738 158.206C95.798 158.314 95.852 158.416 95.9 158.512C95.96 158.608 96.026 158.74 96.098 158.908C96.026 158.584 95.966 158.272 95.918 157.972C95.882 157.66 95.864 157.408 95.864 157.216V148H97.43V160.978H96.17L88.142 151.384C88.034 151.252 87.944 151.138 87.872 151.042C87.8 150.946 87.734 150.856 87.674 150.772C87.614 150.676 87.554 150.58 87.494 150.484C87.446 150.376 87.392 150.256 87.332 150.124C87.404 150.46 87.458 150.766 87.494 151.042C87.542 151.306 87.566 151.516 87.566 151.672V160.978H86Z" fill="#2C5ECE"/>
</g>
<defs>
<clipPath id="clip0_24_425">
<rect width="282.57" height="303.24" fill="white"/>
</clipPath>
</defs>
</svg>
